<?xml version="1.0" encoding="utf-8"?>
<!-- Generator: Adobe Illustrator 24.0.2, SVG Export Plug-In . SVG Version: 6.00 Build 0)  -->
<svg version="1.1" id="Layer_1" xmlns="http://www.w3.org/2000/svg" xmlns:xlink="http://www.w3.org/1999/xlink" x="0px" y="0px"
	 width="841.89px" height="237.71px" viewBox="0 0 841.89 237.71" style="enable-background:new 0 0 841.89 237.71;"
	 xml:space="preserve">
<style type="text/css">
	.st0{fill:#FFFFFF;}
</style>
<g>
	<g>
		<path class="st0" d="M116.83,158.92H68.5c-1.04,0-1.39-0.43-1.04-1.3l3.12-25.72c0-0.87,0.43-1.3,1.3-1.3h25.2
			c2.42,0,3.9-1.3,4.41-3.89l4.16-34.04c0.17-1.21-0.04-2.17-0.65-2.86s-1.52-1.04-2.73-1.04h-25.2c-1.04,0-1.39-0.43-1.04-1.3
			l3.12-25.46c0-0.87,0.43-1.3,1.3-1.3h48.32c1.21,0,2.21-0.35,2.99-1.04c0.78-0.69,1.25-1.64,1.43-2.86l4.16-34.04
			c0.17-1.21-0.04-2.16-0.65-2.86c-0.61-0.69-1.52-1.04-2.73-1.04H40.71c-1.04,0-1.95,0.35-2.73,1.04c-0.78,0.7-1.26,1.65-1.43,2.86
			l-21.3,174.07c-0.17,1.21,0.04,2.17,0.65,2.86c0.61,0.69,1.43,1.04,2.47,1.04h93.27c1.21,0,2.21-0.35,2.99-1.04
			c0.78-0.7,1.25-1.65,1.43-2.86l4.16-34.04c0.17-1.21-0.04-2.16-0.65-2.86C118.95,159.27,118.04,158.92,116.83,158.92z"/>
		<path class="st0" d="M280.38,19.92c-0.61-0.69-1.43-1.04-2.47-1.04h-39.49c-2.08,0-3.64,0.95-4.68,2.86l-21.56,33.77
			c-0.7,0.7-1.21,0.7-1.56,0l-13.77-33.77c-0.69-1.91-2.08-2.86-4.15-2.86h-39.49c-1.04,0-1.95,0.35-2.73,1.04
			c-0.78,0.7-1.26,1.65-1.43,2.86l-21.3,174.07c-0.18,1.21,0.04,2.17,0.65,2.86c0.61,0.69,1.51,1.04,2.73,1.04h39.75
			c1.21,0,2.16-0.35,2.86-1.04c0.69-0.7,1.12-1.65,1.3-2.86l12.99-106.26c0.17-0.69,0.43-1.08,0.78-1.17
			c0.34-0.09,0.61,0.13,0.78,0.65l13.25,30.14h0.26l3.12-4.68l17.67-25.46c0.34-0.52,0.73-0.74,1.17-0.65
			c0.43,0.09,0.56,0.48,0.39,1.17l-12.99,106.26c-0.17,1.21,0.04,2.17,0.65,2.86s1.43,1.04,2.47,1.04h40.01
			c1.04,0,1.95-0.35,2.73-1.04c0.78-0.7,1.25-1.65,1.43-2.86l21.31-174.07C281.21,21.57,280.99,20.62,280.38,19.92z"/>
		<path class="st0" d="M378.72,18.88h-45.99c-2.43,0-3.99,1.13-4.68,3.38L270.9,196.59c-0.69,2.77,0.26,4.16,2.86,4.16h39.49
			c2.42,0,3.9-1.21,4.42-3.64l4.94-19.74c0.34-0.87,0.95-1.3,1.82-1.3h22.6c0.34,0,0.69,0.13,1.04,0.39
			c0.34,0.26,0.43,0.56,0.26,0.91l0.52,19.74c-0.17,2.43,0.95,3.64,3.38,3.64h40.79c2.6,0,3.9-1.21,3.9-3.64v-0.52l-14.3-174.33
			C382.45,20.01,381.15,18.88,378.72,18.88z M346.25,138.66h-12.21c-0.87,0-1.13-0.43-0.78-1.3l11.95-48.07
			c0-0.52,0.21-0.82,0.65-0.91c0.43-0.08,0.65,0.22,0.65,0.91l1.04,48.07C347.2,138.23,346.77,138.66,346.25,138.66z"/>
		<path class="st0" d="M551.82,172.67h14.5c1.01,0,1.66-0.51,1.95-1.52l7.9-35.18c0.07-0.21,0.2-0.34,0.38-0.38
			c0.18-0.03,0.23,0.05,0.16,0.27l0.21,35.28c0,1.01,0.51,1.52,1.52,1.52h14.5c1.01,0,1.66-0.47,1.95-1.41l22.3-72.63
			c0.43-1.15,0.03-1.73-1.19-1.73h-16.67c-0.94,0-1.55,0.51-1.84,1.51l-7.25,33.56c0,0.21-0.09,0.31-0.27,0.27
			c-0.18-0.03-0.27-0.12-0.27-0.27l-0.32-33.56c0-1.01-0.51-1.51-1.52-1.51h-12.77c-1.08,0-1.73,0.51-1.95,1.51l-8.01,33.56
			c0,0.21-0.11,0.32-0.32,0.32c-0.22,0-0.29-0.11-0.22-0.32l0.54-33.56c0-1.01-0.51-1.51-1.51-1.51h-17.1
			c-1.15,0-1.73,0.58-1.73,1.73l5.41,72.63C550.27,172.21,550.81,172.67,551.82,172.67z"/>
		<g>
			<path class="st0" d="M657.19,101.29c-3.72-3.5-8.75-5.25-15.1-5.25c-7.07,0-12.97,2.09-17.7,6.28
				c-4.73,4.18-7.52,9.81-8.39,16.89l-3.9,31.17c-0.15,1.73-0.21,2.96-0.21,3.68c0,5.99,1.84,10.73,5.52,14.23s8.73,5.25,15.15,5.25
				c7.07,0,12.99-2.09,17.75-6.28c4.76-4.18,7.58-9.81,8.44-16.89l3.79-31.17c0.14-1.73,0.21-2.96,0.21-3.68
				C662.76,109.53,660.9,104.79,657.19,101.29z M638.95,151.24c-0.22,1.52-0.7,2.71-1.46,3.57c-0.76,0.87-1.68,1.3-2.76,1.3
				c-0.94,0-1.68-0.33-2.22-0.97c-0.54-0.65-0.81-1.55-0.81-2.71c0-0.5,0.03-0.9,0.11-1.19l4-32.91c0.15-1.51,0.6-2.7,1.36-3.57
				s1.71-1.3,2.87-1.3c1.08,0,1.88,0.43,2.38,1.3s0.69,2.06,0.54,3.57L638.95,151.24z"/>
		</g>
		<path class="st0" d="M661.3,172.24c0.25,0.29,0.59,0.43,1.03,0.43H679c0.43,0,0.81-0.14,1.13-0.43c0.33-0.29,0.52-0.69,0.6-1.19
			l3.36-26.95c0-0.36,0.14-0.54,0.43-0.54c0.21,0,0.32,0.15,0.32,0.43l3.14,27.28c0.14,0.94,0.65,1.41,1.51,1.41h17.1
			c0.43,0,0.79-0.13,1.08-0.38s0.43-0.59,0.43-1.03v-0.43l-4.65-30.74c-0.15-0.29-0.03-0.54,0.33-0.76
			c2.74-1.95,4.98-4.49,6.71-7.63c1.73-3.14,2.85-6.69,3.36-10.66c0.15-0.94,0.22-2.27,0.22-4.01c0-6.06-1.68-10.93-5.03-14.61
			c-3.36-3.68-7.92-5.52-13.69-5.52h-23.7c-0.43,0-0.81,0.15-1.14,0.43c-0.32,0.29-0.52,0.69-0.59,1.19l-8.88,72.52
			C660.96,171.55,661.05,171.95,661.3,172.24z M687.66,114.87c0-0.36,0.18-0.54,0.54-0.54h1.52c1.37,0,2.45,0.45,3.25,1.35
			c0.79,0.9,1.19,2.18,1.19,3.84c0,2.67-0.59,4.76-1.79,6.28c-1.19,1.52-2.65,2.27-4.38,2.27h-1.41c-0.36,0-0.54-0.18-0.54-0.54
			L687.66,114.87z"/>
		<path class="st0" d="M712.72,172.24c0.25,0.29,0.59,0.43,1.03,0.43h39.29c1.01,0,1.62-0.54,1.84-1.62l1.73-14.18
			c0.07-0.51-0.02-0.9-0.27-1.19c-0.25-0.29-0.63-0.43-1.14-0.43h-20.56c-0.43,0-0.58-0.18-0.43-0.54l6.82-56.17
			c0.07-0.51-0.02-0.9-0.27-1.19s-0.59-0.43-1.03-0.43h-16.67c-0.43,0-0.81,0.15-1.14,0.43c-0.32,0.29-0.52,0.69-0.59,1.19
			l-8.88,72.52C712.37,171.55,712.46,171.95,712.72,172.24z"/>
		<g>
			<path class="st0" d="M805.91,101.94c-3.79-3.36-8.89-5.03-15.32-5.03h-20.67c-0.43,0-0.81,0.15-1.14,0.43
				c-0.32,0.29-0.52,0.69-0.59,1.19l-8.88,72.52c-0.07,0.51,0.02,0.9,0.27,1.19c0.25,0.29,0.59,0.43,1.03,0.43h20.67
				c4.62,0,8.82-0.9,12.61-2.7s6.85-4.35,9.2-7.63c2.34-3.28,3.77-7.05,4.28-11.31l4-32.47c0.15-1.44,0.22-2.49,0.22-3.14
				C811.59,109.79,809.7,105.3,805.91,101.94z M791.46,119.85l-3.57,29.76c-0.29,1.59-0.88,2.89-1.79,3.9
				c-0.9,1.01-1.93,1.55-3.08,1.62l-1.51,0.11c-0.43,0-0.58-0.18-0.43-0.54l4.87-39.83c0-0.36,0.18-0.54,0.54-0.54h1.52
				c1.08,0,1.95,0.38,2.6,1.14c0.65,0.76,0.97,1.82,0.97,3.19L791.46,119.85z"/>
		</g>
		<path class="st0" d="M514.48,29.01c-8.92-8.14-20.92-12.22-35.99-12.22c-16.63,0-30.57,4.77-41.83,14.29s-17.84,22.34-19.74,38.45
			l-9.87,80.28c-0.35,3.81-0.52,6.5-0.52,8.05c0,13.86,4.37,24.82,13.12,32.87c8.74,8.06,20.74,12.08,35.98,12.08
			c1.11,0,2.17-0.08,3.25-0.12c15.19-0.6,28.12-5.33,38.71-14.3c1.89-1.6,3.6-3.33,5.23-5.11c8.14-8.91,13.05-20.05,14.64-33.47
			l5.98-47.81c0.17-1.21-0.04-2.17-0.65-2.86c-0.61-0.69-1.52-1.04-2.73-1.04h-47.28c-1.04,0-1.95,0.35-2.73,1.04
			c-0.78,0.7-1.26,1.65-1.43,2.86l-3.64,29.88c-0.17,1.21,0.04,2.17,0.65,2.86c0.6,0.7,1.51,1.04,2.73,1.04h2.08
			c0.87,0,1.3,0.43,1.3,1.3l-1.82,12.99c-0.35,3.29-1.35,5.93-2.99,7.92c-1.65,1.99-3.68,2.99-6.1,2.99c-2.25,0-3.99-1-5.2-2.99
			c-1.21-1.99-1.65-4.63-1.3-7.92l9.87-80.54c0.34-3.29,1.38-5.93,3.12-7.92c1.73-1.99,3.81-2.99,6.24-2.99c2.25,0,3.98,1,5.19,2.99
			s1.65,4.63,1.3,7.92l-1.3,9.09c-0.17,1.21,0.04,2.17,0.65,2.86c0.6,0.7,1.51,1.04,2.73,1.04h39.75c0.06,0,0.11-0.02,0.17-0.03
			c2.31-0.07,3.74-1.34,4.25-3.87l1.04-8.58c0.29-2.92,0.43-5.16,0.48-6.97c0.01-0.34,0.04-0.79,0.04-1.09
			C527.86,48.16,523.4,37.15,514.48,29.01z"/>
		<g>
			<path class="st0" d="M536.98,78.37c-0.52,2.62-1.98,3.96-4.29,4.14H824.2l2.38-19.41H538.55c-0.08,1.68-0.2,3.56-0.44,5.97
				L536.98,78.37z"/>
			<path class="st0" d="M505.84,197.43c-2.32,1.96-4.77,3.69-7.29,5.28h310.94l2.38-19.41H517.96c-1.9,3.03-4.01,5.92-6.44,8.59
				C509.75,193.82,507.89,195.69,505.84,197.43z"/>
		</g>
	</g>
</g>
</svg>
